<svg viewBox="0 0 256 256" xml:space="preserve" xmlns="http://www.w3.org/2000/svg"><path d="M52.688 128c0-3.534 2.865-6 6.4-6h122.034l-47.141-45.956c-2.538-2.463-2.597-6.616-.138-9.149 1.256-1.295 2.925-1.995 4.594-1.995 1.606 0 3.216.576 4.456 1.782l58.466 56.737a6.387 6.387 0 0 1 0 9.178l-58.466 56.743c-2.528 2.459-6.584 2.401-9.05-.139-2.459-2.534-2.4-6.789.138-9.251L181.122 134H59.088c-3.535 0-6.4-2.466-6.4-6zM0 128c0 70.578 57.422 128 128 128s128-57.422 128-128S198.578 0 128 0 0 57.422 0 128zm12.8 0C12.8 64.479 64.479 12.8 128 12.8S243.2 64.479 243.2 128 191.521 243.2 128 243.2 12.8 191.521 12.8 128z" fill="#ffd2e3" class="fill-000000"></path></svg>