<svg viewBox="0 0 64 64" xml:space="preserve" xmlns="http://www.w3.org/2000/svg"><circle cx="32" cy="32" fill="#cccccc" r="32" class="fill-77b3d4"></circle><path d="M52 45a4 4 0 0 1-4 4H16a4 4 0 0 1-4-4V25a4 4 0 0 1 4-4h32a4 4 0 0 1 4 4v20z" fill="#231F20" opacity=".2" class="fill-231f20"></path><path d="M52 43a4 4 0 0 1-4 4H16a4 4 0 0 1-4-4V23a4 4 0 0 1 4-4h32a4 4 0 0 1 4 4v20z" fill="#FFFFFF" class="fill-ffffff"></path><path fill="#4F5D73" d="M12 25h40v6H12z" class="fill-4f5d73"></path><circle cx="38" cy="41" fill="#E0995E" r="2" class="fill-e0995e"></circle><circle cx="46" cy="41" fill="#E0995E" r="2" class="fill-e0995e"></circle><circle cx="30" cy="41" fill="#E0995E" r="2" class="fill-e0995e"></circle></svg>