<?xml version="1.0" encoding="UTF-8"?>
<svg id="_레이어_1" data-name="레이어_1" xmlns="http://www.w3.org/2000/svg" version="1.1" xmlns:xlink="http://www.w3.org/1999/xlink" viewBox="0 0 64.58 64.58">
  <!-- Generator: Adobe Illustrator 29.2.1, SVG Export Plug-In . SVG Version: 2.1.0 Build 116)  -->
  <defs>
    <style>
      .st0 {
        fill: #262626;
      }

      .st1 {
        filter: url(#drop-shadow-3);
      }

      .st1, .st2, .st3 {
        fill: #fff;
      }

      .st2 {
        filter: url(#drop-shadow-1);
      }

      .st3 {
        filter: url(#drop-shadow-2);
      }
    </style>
    <filter id="drop-shadow-1" x="175.85" y="9.26" width="54" height="55" filterUnits="userSpaceOnUse">
      <feOffset dx="1" dy="3"/>
      <feGaussianBlur result="blur" stdDeviation="1"/>
      <feFlood flood-color="#000" flood-opacity=".3"/>
      <feComposite in2="blur" operator="in"/>
      <feComposite in="SourceGraphic"/>
    </filter>
    <filter id="drop-shadow-2" x="235.85" y="9.26" width="54" height="55" filterUnits="userSpaceOnUse">
      <feOffset dx="1" dy="3"/>
      <feGaussianBlur result="blur1" stdDeviation="1"/>
      <feFlood flood-color="#000" flood-opacity=".3"/>
      <feComposite in2="blur1" operator="in"/>
      <feComposite in="SourceGraphic"/>
    </filter>
    <filter id="drop-shadow-3" x="6.29" y="8.29" width="54" height="54" filterUnits="userSpaceOnUse">
      <feOffset dx="1" dy="3"/>
      <feGaussianBlur result="blur2" stdDeviation="1"/>
      <feFlood flood-color="#000" flood-opacity=".3"/>
      <feComposite in2="blur2" operator="in"/>
      <feComposite in="SourceGraphic"/>
    </filter>
  </defs>
  <circle class="st2" cx="201.57" cy="33.82" r="23.57"/>
  <path class="st0" d="M208.65,33.97c-.37,0-.74-.14-1.02-.42l-6.06-6.06-6.06,6.06c-.56.56-1.48.56-2.04,0s-.56-1.48,0-2.04l7.08-7.08c.56-.56,1.48-.56,2.04,0l7.08,7.08c.56.56.56,1.48,0,2.04-.28.28-.65.42-1.02.42Z"/>
  <path class="st0" d="M201.57,44.5c-.8,0-1.44-.65-1.44-1.44v-17.61c0-.8.65-1.44,1.44-1.44s1.44.65,1.44,1.44v17.61c0,.8-.65,1.44-1.44,1.44Z"/>
  <circle class="st3" cx="261.99" cy="33.82" r="23.57"/>
  <path class="st0" d="M268.87,37.02c-.36,0-.72-.14-.99-.41l-5.89-5.89-5.89,5.89c-.55.55-1.44.55-1.98,0s-.55-1.44,0-1.98l6.88-6.88c.55-.55,1.44-.55,1.98,0l6.88,6.88c.55.55.55,1.44,0,1.98-.27.27-.63.41-.99.41Z"/>
  <g>
    <circle class="st1" cx="32.29" cy="32.29" r="23.57"/>
    <path class="st0" d="M37.66,35.23c-.26,0-.51-.1-.71-.29l-4.65-4.65-4.65,4.65c-.39.39-1.02.39-1.41,0-.39-.39-.39-1.02,0-1.41l5.36-5.36c.39-.39,1.02-.39,1.41,0l5.36,5.36c.39.39.39,1.02,0,1.41-.2.2-.45.29-.71.29Z"/>
    <path class="st0" d="M32.3,42.66c-.55,0-1-.45-1-1v-12.78c0-.55.45-1,1-1s1,.45,1,1v12.78c0,.55-.45,1-1,1Z"/>
    <path class="st0" d="M36.65,25.75h-8.7c-.55,0-1-.45-1-1s.45-1,1-1h8.7c.55,0,1,.45,1,1s-.45,1-1,1Z"/>
  </g>
</svg>